<?xml version="1.0" encoding="utf-8" standalone="no"?>
<!DOCTYPE svg PUBLIC "-//W3C//DTD SVG 1.1//EN"
  "http://www.w3.org/Graphics/SVG/1.1/DTD/svg11.dtd">
<!-- Created with matplotlib (http://matplotlib.org/) -->
<svg height="396pt" version="1.1" viewBox="0 0 432 396" width="432pt" xmlns="http://www.w3.org/2000/svg" xmlns:xlink="http://www.w3.org/1999/xlink">
 <defs>
  <style type="text/css">
*{stroke-linecap:butt;stroke-linejoin:round;}
  </style>
 </defs>
 <g id="figure_1">
  <g id="patch_1">
   <path d="M 0 396 
L 432 396 
L 432 0 
L 0 0 
z
" style="fill:none;"/>
  </g>
  <g id="axes_1">
   <g id="patch_2">
    <path d="M 56.16 114.345 
L 423.36 114.345 
L 423.36 7.92 
L 56.16 7.92 
z
" style="fill:none;"/>
   </g>
   <g id="matplotlib.axis_1">
    <g id="xtick_1">
     <g id="line2d_1"/>
    </g>
    <g id="xtick_2">
     <g id="line2d_2"/>
    </g>
    <g id="xtick_3">
     <g id="line2d_3"/>
    </g>
    <g id="xtick_4">
     <g id="line2d_4"/>
    </g>
   </g>
   <g id="matplotlib.axis_2">
    <g id="ytick_1">
     <g id="line2d_5">
      <defs>
       <path d="M 0 0 
L -3.5 0 
" id="m27a9bd8842" style="stroke:#000000;stroke-width:0.8;"/>
      </defs>
      <g>
       <use style="stroke:#000000;stroke-width:0.8;" x="56.16" xlink:href="#m27a9bd8842" y="114.345"/>
      </g>
     </g>
     <g id="text_1">
      <!-- 0.0 -->
      <defs>
       <path d="M 31.78125 66.40625 
Q 24.171875 66.40625 20.328125 58.90625 
Q 16.5 51.421875 16.5 36.375 
Q 16.5 21.390625 20.328125 13.890625 
Q 24.171875 6.390625 31.78125 6.390625 
Q 39.453125 6.390625 43.28125 13.890625 
Q 47.125 21.390625 47.125 36.375 
Q 47.125 51.421875 43.28125 58.90625 
Q 39.453125 66.40625 31.78125 66.40625 
M 31.78125 74.21875 
Q 44.046875 74.21875 50.515625 64.515625 
Q 56.984375 54.828125 56.984375 36.375 
Q 56.984375 17.96875 50.515625 8.265625 
Q 44.046875 -1.421875 31.78125 -1.421875 
Q 19.53125 -1.421875 13.0625 8.265625 
Q 6.59375 17.96875 6.59375 36.375 
Q 6.59375 54.828125 13.0625 64.515625 
Q 19.53125 74.21875 31.78125 74.21875 
" id="DejaVuSans-30"/>
       <path d="M 10.6875 12.40625 
L 21 12.40625 
L 21 0 
L 10.6875 0 
z
" id="DejaVuSans-2e"/>
      </defs>
      <g transform="translate(30.07625 118.904063)scale(0.12 -0.12)">
       <use xlink:href="#DejaVuSans-30"/>
       <use x="63.623047" xlink:href="#DejaVuSans-2e"/>
       <use x="95.410156" xlink:href="#DejaVuSans-30"/>
      </g>
     </g>
    </g>
    <g id="ytick_2">
     <g id="line2d_6">
      <g>
       <use style="stroke:#000000;stroke-width:0.8;" x="56.16" xlink:href="#m27a9bd8842" y="93.06"/>
      </g>
     </g>
     <g id="text_2">
      <!-- 0.5 -->
      <defs>
       <path d="M 10.796875 72.90625 
L 49.515625 72.90625 
L 49.515625 64.59375 
L 19.828125 64.59375 
L 19.828125 46.734375 
Q 21.96875 47.46875 24.109375 47.828125 
Q 26.265625 48.1875 28.421875 48.1875 
Q 40.625 48.1875 47.75 41.5 
Q 54.890625 34.8125 54.890625 23.390625 
Q 54.890625 11.625 47.5625 5.09375 
Q 40.234375 -1.421875 26.90625 -1.421875 
Q 22.3125 -1.421875 17.546875 -0.640625 
Q 12.796875 0.140625 7.71875 1.703125 
L 7.71875 11.625 
Q 12.109375 9.234375 16.796875 8.0625 
Q 21.484375 6.890625 26.703125 6.890625 
Q 35.15625 6.890625 40.078125 11.328125 
Q 45.015625 15.765625 45.015625 23.390625 
Q 45.015625 31 40.078125 35.4375 
Q 35.15625 39.890625 26.703125 39.890625 
Q 22.75 39.890625 18.8125 39.015625 
Q 14.890625 38.140625 10.796875 36.28125 
z
" id="DejaVuSans-35"/>
      </defs>
      <g transform="translate(30.07625 97.619062)scale(0.12 -0.12)">
       <use xlink:href="#DejaVuSans-30"/>
       <use x="63.623047" xlink:href="#DejaVuSans-2e"/>
       <use x="95.410156" xlink:href="#DejaVuSans-35"/>
      </g>
     </g>
    </g>
    <g id="ytick_3">
     <g id="line2d_7">
      <g>
       <use style="stroke:#000000;stroke-width:0.8;" x="56.16" xlink:href="#m27a9bd8842" y="71.775"/>
      </g>
     </g>
     <g id="text_3">
      <!-- 1.0 -->
      <defs>
       <path d="M 12.40625 8.296875 
L 28.515625 8.296875 
L 28.515625 63.921875 
L 10.984375 60.40625 
L 10.984375 69.390625 
L 28.421875 72.90625 
L 38.28125 72.90625 
L 38.28125 8.296875 
L 54.390625 8.296875 
L 54.390625 0 
L 12.40625 0 
z
" id="DejaVuSans-31"/>
      </defs>
      <g transform="translate(30.07625 76.334063)scale(0.12 -0.12)">
       <use xlink:href="#DejaVuSans-31"/>
       <use x="63.623047" xlink:href="#DejaVuSans-2e"/>
       <use x="95.410156" xlink:href="#DejaVuSans-30"/>
      </g>
     </g>
    </g>
    <g id="ytick_4">
     <g id="line2d_8">
      <g>
       <use style="stroke:#000000;stroke-width:0.8;" x="56.16" xlink:href="#m27a9bd8842" y="50.49"/>
      </g>
     </g>
     <g id="text_4">
      <!-- 1.5 -->
      <g transform="translate(30.07625 55.049062)scale(0.12 -0.12)">
       <use xlink:href="#DejaVuSans-31"/>
       <use x="63.623047" xlink:href="#DejaVuSans-2e"/>
       <use x="95.410156" xlink:href="#DejaVuSans-35"/>
      </g>
     </g>
    </g>
    <g id="ytick_5">
     <g id="line2d_9">
      <g>
       <use style="stroke:#000000;stroke-width:0.8;" x="56.16" xlink:href="#m27a9bd8842" y="29.205"/>
      </g>
     </g>
     <g id="text_5">
      <!-- 2.0 -->
      <defs>
       <path d="M 19.1875 8.296875 
L 53.609375 8.296875 
L 53.609375 0 
L 7.328125 0 
L 7.328125 8.296875 
Q 12.9375 14.109375 22.625 23.890625 
Q 32.328125 33.6875 34.8125 36.53125 
Q 39.546875 41.84375 41.421875 45.53125 
Q 43.3125 49.21875 43.3125 52.78125 
Q 43.3125 58.59375 39.234375 62.25 
Q 35.15625 65.921875 28.609375 65.921875 
Q 23.96875 65.921875 18.8125 64.3125 
Q 13.671875 62.703125 7.8125 59.421875 
L 7.8125 69.390625 
Q 13.765625 71.78125 18.9375 73 
Q 24.125 74.21875 28.421875 74.21875 
Q 39.75 74.21875 46.484375 68.546875 
Q 53.21875 62.890625 53.21875 53.421875 
Q 53.21875 48.921875 51.53125 44.890625 
Q 49.859375 40.875 45.40625 35.40625 
Q 44.1875 33.984375 37.640625 27.21875 
Q 31.109375 20.453125 19.1875 8.296875 
" id="DejaVuSans-32"/>
      </defs>
      <g transform="translate(30.07625 33.764063)scale(0.12 -0.12)">
       <use xlink:href="#DejaVuSans-32"/>
       <use x="63.623047" xlink:href="#DejaVuSans-2e"/>
       <use x="95.410156" xlink:href="#DejaVuSans-30"/>
      </g>
     </g>
    </g>
    <g id="ytick_6">
     <g id="line2d_10">
      <g>
       <use style="stroke:#000000;stroke-width:0.8;" x="56.16" xlink:href="#m27a9bd8842" y="7.92"/>
      </g>
     </g>
     <g id="text_6">
      <!-- 2.5 -->
      <g transform="translate(30.07625 12.479062)scale(0.12 -0.12)">
       <use xlink:href="#DejaVuSans-32"/>
       <use x="63.623047" xlink:href="#DejaVuSans-2e"/>
       <use x="95.410156" xlink:href="#DejaVuSans-35"/>
      </g>
     </g>
    </g>
    <g id="text_7">
     <!-- Ca$^{2+}$ ($\mu$M) -->
     <defs>
      <path d="M 64.40625 67.28125 
L 64.40625 56.890625 
Q 59.421875 61.53125 53.78125 63.8125 
Q 48.140625 66.109375 41.796875 66.109375 
Q 29.296875 66.109375 22.65625 58.46875 
Q 16.015625 50.828125 16.015625 36.375 
Q 16.015625 21.96875 22.65625 14.328125 
Q 29.296875 6.6875 41.796875 6.6875 
Q 48.140625 6.6875 53.78125 8.984375 
Q 59.421875 11.28125 64.40625 15.921875 
L 64.40625 5.609375 
Q 59.234375 2.09375 53.4375 0.328125 
Q 47.65625 -1.421875 41.21875 -1.421875 
Q 24.65625 -1.421875 15.125 8.703125 
Q 5.609375 18.84375 5.609375 36.375 
Q 5.609375 53.953125 15.125 64.078125 
Q 24.65625 74.21875 41.21875 74.21875 
Q 47.75 74.21875 53.53125 72.484375 
Q 59.328125 70.75 64.40625 67.28125 
" id="DejaVuSans-43"/>
      <path d="M 34.28125 27.484375 
Q 23.390625 27.484375 19.1875 25 
Q 14.984375 22.515625 14.984375 16.5 
Q 14.984375 11.71875 18.140625 8.90625 
Q 21.296875 6.109375 26.703125 6.109375 
Q 34.1875 6.109375 38.703125 11.40625 
Q 43.21875 16.703125 43.21875 25.484375 
L 43.21875 27.484375 
z
M 52.203125 31.203125 
L 52.203125 0 
L 43.21875 0 
L 43.21875 8.296875 
Q 40.140625 3.328125 35.546875 0.953125 
Q 30.953125 -1.421875 24.3125 -1.421875 
Q 15.921875 -1.421875 10.953125 3.296875 
Q 6 8.015625 6 15.921875 
Q 6 25.140625 12.171875 29.828125 
Q 18.359375 34.515625 30.609375 34.515625 
L 43.21875 34.515625 
L 43.21875 35.40625 
Q 43.21875 41.609375 39.140625 45 
Q 35.0625 48.390625 27.6875 48.390625 
Q 23 48.390625 18.546875 47.265625 
Q 14.109375 46.140625 10.015625 43.890625 
L 10.015625 52.203125 
Q 14.9375 54.109375 19.578125 55.046875 
Q 24.21875 56 28.609375 56 
Q 40.484375 56 46.34375 49.84375 
Q 52.203125 43.703125 52.203125 31.203125 
" id="DejaVuSans-61"/>
      <path d="M 46 62.703125 
L 46 35.5 
L 73.1875 35.5 
L 73.1875 27.203125 
L 46 27.203125 
L 46 0 
L 37.796875 0 
L 37.796875 27.203125 
L 10.59375 27.203125 
L 10.59375 35.5 
L 37.796875 35.5 
L 37.796875 62.703125 
z
" id="DejaVuSans-2b"/>
      <path id="DejaVuSans-20"/>
      <path d="M 31 75.875 
Q 24.46875 64.65625 21.28125 53.65625 
Q 18.109375 42.671875 18.109375 31.390625 
Q 18.109375 20.125 21.3125 9.0625 
Q 24.515625 -2 31 -13.1875 
L 23.1875 -13.1875 
Q 15.875 -1.703125 12.234375 9.375 
Q 8.59375 20.453125 8.59375 31.390625 
Q 8.59375 42.28125 12.203125 53.3125 
Q 15.828125 64.359375 23.1875 75.875 
z
" id="DejaVuSans-28"/>
      <path d="M -1.3125 -20.796875 
L 13.375 54.6875 
L 22.40625 54.6875 
L 15.765625 20.65625 
Q 15.578125 19.625 15.421875 18.359375 
Q 15.28125 17.09375 15.28125 15.828125 
Q 15.28125 11.28125 18.140625 8.828125 
Q 21 6.390625 26.3125 6.390625 
Q 33.546875 6.390625 37.984375 10.484375 
Q 42.4375 14.59375 44 22.796875 
L 50.203125 54.6875 
L 59.1875 54.6875 
L 51.03125 12.640625 
Q 50.828125 11.71875 50.75 11.03125 
Q 50.6875 10.359375 50.6875 9.8125 
Q 50.6875 8.296875 51.296875 7.59375 
Q 51.90625 6.890625 53.21875 6.890625 
Q 53.71875 6.890625 54.5625 7.125 
Q 55.421875 7.375 56.984375 8.015625 
L 55.609375 0.78125 
Q 53.46875 -0.296875 51.515625 -0.859375 
Q 49.5625 -1.421875 47.703125 -1.421875 
Q 44.484375 -1.421875 42.65625 0.625 
Q 40.828125 2.6875 40.828125 6.296875 
Q 38.09375 2.390625 34.296875 0.484375 
Q 30.515625 -1.421875 25.390625 -1.421875 
Q 20.84375 -1.421875 17.453125 0.671875 
Q 14.0625 2.78125 12.984375 6.203125 
L 7.71875 -20.796875 
z
" id="DejaVuSans-Oblique-3bc"/>
      <path d="M 9.8125 72.90625 
L 24.515625 72.90625 
L 43.109375 23.296875 
L 61.8125 72.90625 
L 76.515625 72.90625 
L 76.515625 0 
L 66.890625 0 
L 66.890625 64.015625 
L 48.09375 14.015625 
L 38.1875 14.015625 
L 19.390625 64.015625 
L 19.390625 0 
L 9.8125 0 
z
" id="DejaVuSans-4d"/>
      <path d="M 8.015625 75.875 
L 15.828125 75.875 
Q 23.140625 64.359375 26.78125 53.3125 
Q 30.421875 42.28125 30.421875 31.390625 
Q 30.421875 20.453125 26.78125 9.375 
Q 23.140625 -1.703125 15.828125 -13.1875 
L 8.015625 -13.1875 
Q 14.5 -2 17.703125 9.0625 
Q 20.90625 20.125 20.90625 31.390625 
Q 20.90625 42.671875 17.703125 53.65625 
Q 14.5 64.65625 8.015625 75.875 
" id="DejaVuSans-29"/>
     </defs>
     <g transform="translate(19.752 103.1325)rotate(-90)scale(0.16 -0.16)">
      <use transform="translate(0 0.765625)" xlink:href="#DejaVuSans-43"/>
      <use transform="translate(69.824219 0.765625)" xlink:href="#DejaVuSans-61"/>
      <use transform="translate(132.060547 39.046875)scale(0.7)" xlink:href="#DejaVuSans-32"/>
      <use transform="translate(190.234375 39.046875)scale(0.7)" xlink:href="#DejaVuSans-2b"/>
      <use transform="translate(265.258789 0.765625)" xlink:href="#DejaVuSans-20"/>
      <use transform="translate(297.045898 0.765625)" xlink:href="#DejaVuSans-28"/>
      <use transform="translate(336.05957 0.765625)" xlink:href="#DejaVuSans-Oblique-3bc"/>
      <use transform="translate(399.682617 0.765625)" xlink:href="#DejaVuSans-4d"/>
      <use transform="translate(485.961914 0.765625)" xlink:href="#DejaVuSans-29"/>
     </g>
    </g>
   </g>
   <g id="line2d_11">
    <path clip-path="url(#p0975bd16dc)" d="M 56.16612 112.2165 
L 57.56148 111.393841 
L 59.59332 110.159293 
L 60.36444 109.418494 
L 61.01316 108.470924 
L 61.5456 107.179247 
L 61.92504 105.729241 
L 62.34732 102.942849 
L 62.8002 97.962023 
L 63.55908 85.088179 
L 64.30572 71.630203 
L 65.57256 53.743886 
L 66.63744 49.512591 
L 67.16988 47.999239 
L 68.40612 40.354003 
L 69.1956 32.072118 
L 69.471 31.768946 
L 69.69132 31.672216 
L 69.69744 31.678015 
L 69.8994 31.684838 
L 70.07076 31.639471 
L 70.18092 31.501235 
L 70.39512 31.242729 
L 70.43796 31.290617 
L 70.6338 31.373283 
L 70.63992 31.367498 
L 70.71948 31.360388 
L 70.7562 31.402679 
L 70.92756 31.524495 
L 70.95816 31.48764 
L 71.16624 30.827597 
L 72.20664 24.619286 
L 72.39636 24.4554 
L 72.42084 24.485009 
L 73.06344 25.217581 
L 73.61424 25.675662 
L 74.15892 26.755147 
L 74.17728 26.733229 
L 74.47104 26.115006 
L 74.77704 24.660686 
L 74.90556 23.625671 
L 75.26052 20.355377 
L 75.60936 17.642005 
L 75.63996 17.673793 
L 75.8358 18.07744 
L 76.09284 18.402837 
L 76.30704 18.474511 
L 76.40496 18.337792 
L 76.50288 18.28176 
L 76.54572 18.320513 
L 76.80888 18.692971 
L 77.22504 19.706324 
L 77.46984 20.099784 
L 77.47596 20.096485 
L 77.74524 20.105993 
L 78.0084 20.82414 
L 80.8236 29.779323 
L 81.05004 29.887467 
L 81.1296 29.704325 
L 81.44172 28.637517 
L 81.45396 28.642599 
L 81.66204 28.884653 
L 81.93744 29.416113 
L 82.7208 31.018206 
L 82.97784 31.550655 
L 83.35728 32.218908 
L 83.58372 32.126515 
L 83.65716 32.089987 
L 83.71224 32.143034 
L 84.01824 32.653006 
L 84.6792 34.239783 
L 85.07088 34.881866 
L 85.15656 34.811501 
L 85.62168 34.710445 
L 85.82976 35.095674 
L 86.21532 36.246713 
L 87.27408 40.024207 
L 87.84936 41.373172 
L 89.66088 44.82944 
L 90.32796 45.955738 
L 90.891 47.301935 
L 91.21536 48.055382 
L 92.2374 51.112715 
L 96.4908 64.632987 
L 100.36476 77.073383 
L 101.62548 81.22448 
L 105.95844 97.446105 
L 107.46396 101.829137 
L 109.16532 107.543859 
L 110.19348 109.878408 
L 110.89116 110.856605 
L 111.49704 111.339252 
L 112.20696 111.639189 
L 113.05764 111.809756 
L 114.1164 111.846432 
L 116.52768 111.621371 
L 122.49468 110.681084 
L 124.3062 110.770354 
L 125.30988 110.70946 
L 127.07244 110.433164 
L 128.08224 109.978193 
L 128.99412 109.319584 
L 129.66732 108.562331 
L 130.26708 107.55068 
L 130.75056 106.268498 
L 131.27076 104.125969 
L 131.76036 101.252404 
L 132.31728 96.809174 
L 132.60492 92.870753 
L 133.4862 78.931906 
L 134.17776 72.147473 
L 134.4654 69.79004 
L 135.38952 57.679857 
L 135.62208 55.786178 
L 135.92196 54.817723 
L 136.4544 53.336933 
L 136.7604 51.88474 
L 137.7702 49.914011 
L 138.00276 49.655182 
L 138.1374 49.047918 
L 138.66372 46.819533 
L 139.03704 45.73001 
L 139.36752 45.032033 
L 139.71636 44.817647 
L 140.57928 42.194102 
L 141.26472 39.336646 
L 141.36264 39.092075 
L 141.69312 38.168071 
L 141.96852 37.890444 
L 142.03584 37.795526 
L 142.67232 36.77985 
L 142.73352 36.828979 
L 143.01504 37.064478 
L 143.9208 39.440785 
L 145.65276 44.010856 
L 147.41532 47.724876 
L 147.66624 47.839767 
L 148.00284 47.917557 
L 148.34556 48.214742 
L 148.4802 48.378295 
L 150.6222 53.222271 
L 151.9686 57.372669 
L 156.8952 72.887455 
L 158.16204 76.283836 
L 160.45704 82.185728 
L 161.28324 83.736887 
L 162.60516 85.749865 
L 163.61496 87.111176 
L 164.06172 88.072939 
L 164.81448 89.854731 
L 166.22208 92.783693 
L 167.25024 95.280444 
L 168.80472 99.212111 
L 169.69212 100.897179 
L 170.79372 103.070223 
L 171.35676 103.606735 
L 172.2258 104.128858 
L 172.75824 104.124916 
L 173.1132 104.253386 
L 173.54772 104.459528 
L 174.44124 104.619109 
L 175.75092 104.404152 
L 176.58324 103.667624 
L 177.81336 102.060306 
L 178.3764 100.982426 
L 179.09244 99.150102 
L 179.85132 96.52681 
L 183.72528 80.710754 
L 184.22712 76.287937 
L 185.1084 66.661469 
L 185.43276 65.283964 
L 186.03864 63.617475 
L 186.34464 61.699121 
L 186.93828 58.503348 
L 187.51968 56.38443 
L 187.79508 56.265033 
L 188.046 56.56015 
L 189.3924 58.832622 
L 190.45728 61.624672 
L 192.44016 67.353119 
L 195.28596 75.208515 
L 201.1122 90.740274 
L 201.95676 93.813889 
L 202.81356 97.169793 
L 203.78052 99.670067 
L 205.06572 102.5244 
L 207.36684 105.964365 
L 208.04004 106.362963 
L 209.88828 107.635488 
L 212.14656 109.076976 
L 212.69124 109.515679 
L 213.60924 110.251846 
L 214.63128 110.594804 
L 216.00828 110.698263 
L 218.646 110.518922 
L 220.45752 110.185049 
L 221.8896 109.541056 
L 222.74028 108.919008 
L 223.41348 108.160126 
L 223.98264 107.176281 
L 224.44164 105.969695 
L 224.90064 104.094511 
L 225.26784 101.563986 
L 225.7758 96.026543 
L 226.30824 86.140268 
L 227.14668 69.225981 
L 227.80152 59.382958 
L 228.63996 51.529957 
L 229.05 50.590197 
L 229.2336 50.113888 
L 229.63752 48.606467 
L 230.14548 45.951465 
L 230.41476 45.091107 
L 231.11244 43.168122 
L 231.33276 43.000168 
L 231.57144 42.763249 
L 231.69384 42.879075 
L 232.08552 43.430381 
L 232.58124 44.59906 
L 232.875 44.928565 
L 233.21772 45.300885 
L 235.45152 49.520803 
L 235.8738 49.855607 
L 236.1492 50.048543 
L 236.4246 50.214867 
L 237.42828 51.950453 
L 238.57272 55.709786 
L 249.0624 91.435267 
L 251.0208 96.764022 
L 251.74296 98.146536 
L 254.58876 102.990798 
L 255.49452 104.570063 
L 256.44312 106.035388 
L 257.9058 108.781962 
L 258.49944 109.709571 
L 259.17876 110.421628 
L 259.73568 110.7631 
L 262.01232 111.436482 
L 264.28284 111.531517 
L 266.21064 111.501984 
L 268.41384 111.793253 
L 269.60724 111.89727 
L 271.94508 111.842839 
L 281.04552 111.459866 
L 284.11164 110.807561 
L 286.98804 109.926134 
L 287.93664 109.452506 
L 288.71388 108.816247 
L 289.35648 108.003556 
L 289.83996 107.038793 
L 290.25612 105.713745 
L 290.7396 103.398271 
L 291.37608 98.815506 
L 291.77388 94.342343 
L 292.41036 85.070392 
L 293.62824 65.671528 
L 295.15212 39.988123 
L 295.40304 37.830084 
L 295.64172 37.296271 
L 295.86816 37.10687 
L 296.00892 36.980165 
L 296.26596 36.710132 
L 296.38836 36.768952 
L 296.73108 37.365947 
L 297.54504 39.123934 
L 298.6344 41.472722 
L 306.54756 71.577505 
L 309.069 80.994003 
L 310.12776 84.302361 
L 312.11676 90.96431 
L 312.894 92.657947 
L 314.09352 94.439809 
L 314.68716 94.676951 
L 315.43992 94.855048 
L 316.09476 95.368235 
L 316.58436 95.71069 
L 316.98216 96.059807 
L 319.21596 99.101452 
L 319.94424 100.805575 
L 321.10092 103.423623 
L 323.31024 107.149524 
L 323.83656 107.92453 
L 326.46204 110.820636 
L 327.80844 111.501954 
L 328.87944 111.786574 
L 330.02388 111.863489 
L 352.62504 111.919716 
L 354.58344 111.834287 
L 357.90048 112.014666 
L 360.58716 111.86409 
L 362.27628 111.605055 
L 366.18084 111.245662 
L 367.38036 111.115403 
L 369.81 110.401426 
L 371.0034 109.786405 
L 371.8296 109.13038 
L 372.5028 108.310335 
L 373.06584 107.292246 
L 373.56768 105.967365 
L 374.04504 104.068519 
L 374.51016 101.22986 
L 374.87124 97.323949 
L 375.26292 90.707356 
L 376.8786 52.804016 
L 377.36208 45.870829 
L 377.71092 42.794894 
L 377.919 42.369713 
L 378.17604 42.333884 
L 378.30456 42.064579 
L 379.49796 36.737423 
L 379.76112 35.892538 
L 380.04876 35.631418 
L 380.28744 35.285913 
L 380.53224 33.864736 
L 380.90556 31.913734 
L 381.75012 29.799203 
L 382.02552 28.592934 
L 382.203 28.331469 
L 382.3866 28.043128 
L 382.71708 26.238416 
L 383.2128 23.783173 
L 383.40252 23.59912 
L 383.90436 23.871409 
L 385.11612 27.859058 
L 386.52984 33.888077 
L 387.46008 37.407106 
L 388.34748 40.336448 
L 390.45276 47.85973 
L 392.32548 54.282545 
L 395.47116 65.418719 
L 397.63152 72.528409 
L 399.1248 76.707611 
L 400.45896 80.120953 
L 402.7968 86.670188 
L 403.6536 88.178263 
L 404.235 88.905502 
L 405.23256 89.737342 
L 405.83844 90.348759 
L 406.38312 91.308416 
L 407.0808 92.951576 
L 408.09672 95.260658 
L 408.81276 97.142994 
L 411.34032 105.308821 
L 412.96212 109.4843 
L 413.56188 110.404289 
L 414.35136 111.226109 
L 415.08576 111.60426 
L 416.0466 111.809516 
L 418.10292 111.996074 
L 421.71372 111.922095 
L 423.36612 111.90674 
L 423.36612 111.90674 
" style="fill:none;stroke:#dba13a;stroke-linecap:square;stroke-width:2;"/>
   </g>
   <g id="line2d_12">
    <path clip-path="url(#p0975bd16dc)" d="M 56.16612 93.06 
L 423.36612 93.06 
" style="fill:none;stroke:#b10318;stroke-dasharray:5.6,2.4;stroke-dashoffset:0;stroke-width:2;"/>
   </g>
   <g id="patch_3">
    <path d="M 56.16 114.345 
L 56.16 7.92 
" style="fill:none;stroke:#000000;stroke-linecap:square;stroke-linejoin:miter;stroke-width:1.5;"/>
   </g>
   <g id="patch_4">
    <path d="M 423.36 114.345 
L 423.36 7.92 
" style="fill:none;"/>
   </g>
   <g id="patch_5">
    <path d="M 56.16 114.345 
L 423.36 114.345 
" style="fill:none;"/>
   </g>
   <g id="patch_6">
    <path d="M 56.16 7.92 
L 423.36 7.92 
" style="fill:none;"/>
   </g>
  </g>
  <g id="axes_2">
   <g id="patch_7">
    <path d="M 56.16 231.4125 
L 423.36 231.4125 
L 423.36 124.9875 
L 56.16 124.9875 
z
" style="fill:none;"/>
   </g>
   <g id="matplotlib.axis_3">
    <g id="xtick_5">
     <g id="line2d_13"/>
    </g>
    <g id="xtick_6">
     <g id="line2d_14"/>
    </g>
    <g id="xtick_7">
     <g id="line2d_15"/>
    </g>
    <g id="xtick_8">
     <g id="line2d_16"/>
    </g>
   </g>
   <g id="matplotlib.axis_4">
    <g id="ytick_7">
     <g id="line2d_17">
      <g>
       <use style="stroke:#000000;stroke-width:0.8;" x="56.16" xlink:href="#m27a9bd8842" y="231.4125"/>
      </g>
     </g>
     <g id="text_8">
      <!-- 0.0 -->
      <g transform="translate(30.07625 235.971563)scale(0.12 -0.12)">
       <use xlink:href="#DejaVuSans-30"/>
       <use x="63.623047" xlink:href="#DejaVuSans-2e"/>
       <use x="95.410156" xlink:href="#DejaVuSans-30"/>
      </g>
     </g>
    </g>
    <g id="ytick_8">
     <g id="line2d_18">
      <g>
       <use style="stroke:#000000;stroke-width:0.8;" x="56.16" xlink:href="#m27a9bd8842" y="179.243382"/>
      </g>
     </g>
     <g id="text_9">
      <!-- 0.5 -->
      <g transform="translate(30.07625 183.802445)scale(0.12 -0.12)">
       <use xlink:href="#DejaVuSans-30"/>
       <use x="63.623047" xlink:href="#DejaVuSans-2e"/>
       <use x="95.410156" xlink:href="#DejaVuSans-35"/>
      </g>
     </g>
    </g>
    <g id="ytick_9">
     <g id="line2d_19">
      <g>
       <use style="stroke:#000000;stroke-width:0.8;" x="56.16" xlink:href="#m27a9bd8842" y="127.074265"/>
      </g>
     </g>
     <g id="text_10">
      <!-- 1.0 -->
      <g transform="translate(30.07625 131.633327)scale(0.12 -0.12)">
       <use xlink:href="#DejaVuSans-31"/>
       <use x="63.623047" xlink:href="#DejaVuSans-2e"/>
       <use x="95.410156" xlink:href="#DejaVuSans-30"/>
      </g>
     </g>
    </g>
    <g id="text_11">
     <!-- $x_A$ -->
     <defs>
      <path d="M 60.015625 54.6875 
L 34.90625 27.875 
L 50.296875 0 
L 39.984375 0 
L 28.421875 21.6875 
L 8.296875 0 
L -2.59375 0 
L 24.3125 28.8125 
L 10.015625 54.6875 
L 20.3125 54.6875 
L 30.8125 34.90625 
L 49.125 54.6875 
z
" id="DejaVuSans-Oblique-78"/>
      <path d="M 36.8125 72.90625 
L 48 72.90625 
L 61.53125 0 
L 51.21875 0 
L 48.1875 18.703125 
L 15.375 18.703125 
L 5.078125 0 
L -5.328125 0 
z
M 40.375 63.1875 
L 19.921875 26.90625 
L 46.6875 26.90625 
z
" id="DejaVuSans-Oblique-41"/>
     </defs>
     <g transform="translate(19.7845 187)rotate(-90)scale(0.16 -0.16)">
      <use transform="translate(0 0.3125)" xlink:href="#DejaVuSans-Oblique-78"/>
      <use transform="translate(59.179688 -16.09375)scale(0.7)" xlink:href="#DejaVuSans-Oblique-41"/>
     </g>
    </g>
   </g>
   <g id="line2d_20">
    <path clip-path="url(#pa33744c5d5)" d="M 56.16 127.074265 
L 63.08784 127.074265 
L 63.09396 189.677206 
L 63.20412 189.004732 
L 64.7586 180.250536 
L 66.3192 172.706403 
L 67.8798 166.232559 
L 69.44652 160.657005 
L 71.02548 155.840786 
L 72.61668 151.685726 
L 74.22624 148.092959 
L 75.85416 144.992381 
L 77.51268 142.303429 
L 79.20792 139.971491 
L 80.95824 137.937805 
L 82.77588 136.164604 
L 84.6792 134.617206 
L 86.6988 133.262267 
L 88.86528 132.078138 
L 91.22148 131.046036 
L 93.8286 130.15021 
L 96.7662 129.38049 
L 100.15056 128.729283 
L 104.15916 128.19145 
L 109.09188 127.763076 
L 115.49952 127.441781 
L 124.6122 127.224675 
L 132.58656 127.14309 
L 132.59268 189.704719 
L 132.70284 189.03195 
L 134.25732 180.273906 
L 135.81792 172.726458 
L 137.37852 166.249769 
L 138.94524 160.671765 
L 140.5242 155.853429 
L 142.1154 151.696543 
L 143.72496 148.102197 
L 145.35288 145.000255 
L 147.0114 142.310122 
L 148.70664 139.977159 
L 150.45696 137.942579 
L 152.2746 136.168599 
L 154.17792 134.620522 
L 156.19752 133.264986 
L 158.364 132.080337 
L 160.7202 131.047782 
L 163.32732 130.151562 
L 166.26492 129.381504 
L 169.64928 128.730011 
L 173.65788 128.191941 
L 178.58448 127.763792 
L 180.68976 127.635201 
L 180.68976 189.90158 
L 180.79992 189.226696 
L 182.3544 180.441124 
L 183.915 172.869953 
L 185.4756 166.372906 
L 187.04232 160.777369 
L 188.62128 155.943888 
L 190.21248 151.773936 
L 191.82204 148.168292 
L 193.44996 145.056601 
L 195.10848 142.358011 
L 196.80372 140.017716 
L 198.55404 137.976741 
L 200.36556 136.20266 
L 202.26888 134.648784 
L 204.28236 133.291902 
L 206.44272 132.10512 
L 208.7928 131.069849 
L 211.3938 130.170509 
L 214.31916 129.398497 
L 217.69128 128.744208 
L 221.68152 128.203556 
L 225.97164 127.815817 
L 225.97164 189.973827 
L 226.0818 189.298167 
L 227.63628 180.502492 
L 229.19688 172.922614 
L 230.75748 166.418096 
L 232.3242 160.816125 
L 233.90316 155.977086 
L 235.49436 151.802339 
L 237.10392 148.192549 
L 238.73184 145.077279 
L 240.39036 142.375586 
L 242.0856 140.0326 
L 243.8298 137.995829 
L 245.64132 136.218642 
L 247.53852 134.6666 
L 249.552 133.306526 
L 251.71236 132.116952 
L 254.06244 131.079247 
L 256.65732 130.179654 
L 259.58268 129.405362 
L 262.94868 128.750146 
L 266.9328 128.208251 
L 271.82268 127.776378 
L 278.163 127.451359 
L 287.14104 127.230646 
L 291.86568 127.17267 
L 291.86568 189.716568 
L 291.97584 189.043671 
L 293.53032 180.283971 
L 295.09092 172.735095 
L 296.65152 166.25718 
L 298.21824 160.678121 
L 299.7972 155.858873 
L 301.3884 151.701201 
L 302.99796 148.106175 
L 304.62588 145.003647 
L 306.2844 142.313004 
L 307.97964 139.9796 
L 309.72996 137.944636 
L 311.5476 136.17032 
L 313.45092 134.621949 
L 315.47052 133.266157 
L 317.637 132.081284 
L 319.9932 131.048534 
L 322.60032 130.152144 
L 325.53792 129.38194 
L 328.92228 128.730324 
L 332.93088 128.192152 
L 337.85748 127.763923 
L 344.259 127.442454 
L 353.35944 127.225131 
L 368.83692 127.107347 
L 375.15276 127.092075 
L 375.15888 189.684326 
L 375.26904 189.011776 
L 376.82352 180.256583 
L 378.38412 172.711593 
L 379.94472 166.237013 
L 381.51144 160.660825 
L 383.0904 155.844058 
L 384.6816 151.688526 
L 386.29116 148.09535 
L 387.91908 144.994418 
L 389.5776 142.305161 
L 391.27284 139.972958 
L 393.02316 137.939041 
L 394.8408 136.165638 
L 396.74412 134.618064 
L 398.76372 133.262971 
L 400.9302 132.078707 
L 403.2864 131.046488 
L 405.89352 130.15056 
L 408.83112 129.380753 
L 412.21548 128.729472 
L 416.22408 128.191577 
L 421.1568 127.763154 
L 423.35388 127.629661 
L 423.35388 127.629661 
" style="fill:none;stroke:#000000;stroke-linecap:square;stroke-width:2;"/>
   </g>
   <g id="patch_8">
    <path d="M 56.16 231.4125 
L 56.16 124.9875 
" style="fill:none;stroke:#000000;stroke-linecap:square;stroke-linejoin:miter;stroke-width:1.5;"/>
   </g>
   <g id="patch_9">
    <path d="M 423.36 231.4125 
L 423.36 124.9875 
" style="fill:none;"/>
   </g>
   <g id="patch_10">
    <path d="M 56.16 231.4125 
L 423.36 231.4125 
" style="fill:none;"/>
   </g>
   <g id="patch_11">
    <path d="M 56.16 124.9875 
L 423.36 124.9875 
" style="fill:none;"/>
   </g>
  </g>
  <g id="axes_3">
   <g id="patch_12">
    <path d="M 56.16 348.48 
L 423.36 348.48 
L 423.36 242.055 
L 56.16 242.055 
z
" style="fill:none;"/>
   </g>
   <g id="matplotlib.axis_5">
    <g id="xtick_9">
     <g id="line2d_21">
      <defs>
       <path d="M 0 0 
L 0 3.5 
" id="m7e88e6a800" style="stroke:#000000;stroke-width:0.8;"/>
      </defs>
      <g>
       <use style="stroke:#000000;stroke-width:0.8;" x="56.16" xlink:href="#m7e88e6a800" y="348.48"/>
      </g>
     </g>
     <g id="text_12">
      <!-- 0.0 -->
      <g transform="translate(46.618125 364.598125)scale(0.12 -0.12)">
       <use xlink:href="#DejaVuSans-30"/>
       <use x="63.623047" xlink:href="#DejaVuSans-2e"/>
       <use x="95.410156" xlink:href="#DejaVuSans-30"/>
      </g>
     </g>
    </g>
    <g id="xtick_10">
     <g id="line2d_22">
      <g>
       <use style="stroke:#000000;stroke-width:0.8;" x="178.56" xlink:href="#m7e88e6a800" y="348.48"/>
      </g>
     </g>
     <g id="text_13">
      <!-- 20.0 -->
      <g transform="translate(165.200625 364.598125)scale(0.12 -0.12)">
       <use xlink:href="#DejaVuSans-32"/>
       <use x="63.623047" xlink:href="#DejaVuSans-30"/>
       <use x="127.246094" xlink:href="#DejaVuSans-2e"/>
       <use x="159.033203" xlink:href="#DejaVuSans-30"/>
      </g>
     </g>
    </g>
    <g id="xtick_11">
     <g id="line2d_23">
      <g>
       <use style="stroke:#000000;stroke-width:0.8;" x="300.96" xlink:href="#m7e88e6a800" y="348.48"/>
      </g>
     </g>
     <g id="text_14">
      <!-- 40.0 -->
      <defs>
       <path d="M 37.796875 64.3125 
L 12.890625 25.390625 
L 37.796875 25.390625 
z
M 35.203125 72.90625 
L 47.609375 72.90625 
L 47.609375 25.390625 
L 58.015625 25.390625 
L 58.015625 17.1875 
L 47.609375 17.1875 
L 47.609375 0 
L 37.796875 0 
L 37.796875 17.1875 
L 4.890625 17.1875 
L 4.890625 26.703125 
z
" id="DejaVuSans-34"/>
      </defs>
      <g transform="translate(287.600625 364.598125)scale(0.12 -0.12)">
       <use xlink:href="#DejaVuSans-34"/>
       <use x="63.623047" xlink:href="#DejaVuSans-30"/>
       <use x="127.246094" xlink:href="#DejaVuSans-2e"/>
       <use x="159.033203" xlink:href="#DejaVuSans-30"/>
      </g>
     </g>
    </g>
    <g id="xtick_12">
     <g id="line2d_24">
      <g>
       <use style="stroke:#000000;stroke-width:0.8;" x="423.36" xlink:href="#m7e88e6a800" y="348.48"/>
      </g>
     </g>
     <g id="text_15">
      <!-- 60.0 -->
      <defs>
       <path d="M 33.015625 40.375 
Q 26.375 40.375 22.484375 35.828125 
Q 18.609375 31.296875 18.609375 23.390625 
Q 18.609375 15.53125 22.484375 10.953125 
Q 26.375 6.390625 33.015625 6.390625 
Q 39.65625 6.390625 43.53125 10.953125 
Q 47.40625 15.53125 47.40625 23.390625 
Q 47.40625 31.296875 43.53125 35.828125 
Q 39.65625 40.375 33.015625 40.375 
M 52.59375 71.296875 
L 52.59375 62.3125 
Q 48.875 64.0625 45.09375 64.984375 
Q 41.3125 65.921875 37.59375 65.921875 
Q 27.828125 65.921875 22.671875 59.328125 
Q 17.53125 52.734375 16.796875 39.40625 
Q 19.671875 43.65625 24.015625 45.921875 
Q 28.375 48.1875 33.59375 48.1875 
Q 44.578125 48.1875 50.953125 41.515625 
Q 57.328125 34.859375 57.328125 23.390625 
Q 57.328125 12.15625 50.6875 5.359375 
Q 44.046875 -1.421875 33.015625 -1.421875 
Q 20.359375 -1.421875 13.671875 8.265625 
Q 6.984375 17.96875 6.984375 36.375 
Q 6.984375 53.65625 15.1875 63.9375 
Q 23.390625 74.21875 37.203125 74.21875 
Q 40.921875 74.21875 44.703125 73.484375 
Q 48.484375 72.75 52.59375 71.296875 
" id="DejaVuSans-36"/>
      </defs>
      <g transform="translate(410.000625 364.598125)scale(0.12 -0.12)">
       <use xlink:href="#DejaVuSans-36"/>
       <use x="63.623047" xlink:href="#DejaVuSans-30"/>
       <use x="127.246094" xlink:href="#DejaVuSans-2e"/>
       <use x="159.033203" xlink:href="#DejaVuSans-30"/>
      </g>
     </g>
    </g>
    <g id="text_16">
     <!-- Time (s) -->
     <defs>
      <path d="M -0.296875 72.90625 
L 61.375 72.90625 
L 61.375 64.59375 
L 35.5 64.59375 
L 35.5 0 
L 25.59375 0 
L 25.59375 64.59375 
L -0.296875 64.59375 
z
" id="DejaVuSans-54"/>
      <path d="M 9.421875 54.6875 
L 18.40625 54.6875 
L 18.40625 0 
L 9.421875 0 
z
M 9.421875 75.984375 
L 18.40625 75.984375 
L 18.40625 64.59375 
L 9.421875 64.59375 
z
" id="DejaVuSans-69"/>
      <path d="M 52 44.1875 
Q 55.375 50.25 60.0625 53.125 
Q 64.75 56 71.09375 56 
Q 79.640625 56 84.28125 50.015625 
Q 88.921875 44.046875 88.921875 33.015625 
L 88.921875 0 
L 79.890625 0 
L 79.890625 32.71875 
Q 79.890625 40.578125 77.09375 44.375 
Q 74.3125 48.1875 68.609375 48.1875 
Q 61.625 48.1875 57.5625 43.546875 
Q 53.515625 38.921875 53.515625 30.90625 
L 53.515625 0 
L 44.484375 0 
L 44.484375 32.71875 
Q 44.484375 40.625 41.703125 44.40625 
Q 38.921875 48.1875 33.109375 48.1875 
Q 26.21875 48.1875 22.15625 43.53125 
Q 18.109375 38.875 18.109375 30.90625 
L 18.109375 0 
L 9.078125 0 
L 9.078125 54.6875 
L 18.109375 54.6875 
L 18.109375 46.1875 
Q 21.1875 51.21875 25.484375 53.609375 
Q 29.78125 56 35.6875 56 
Q 41.65625 56 45.828125 52.96875 
Q 50 49.953125 52 44.1875 
" id="DejaVuSans-6d"/>
      <path d="M 56.203125 29.59375 
L 56.203125 25.203125 
L 14.890625 25.203125 
Q 15.484375 15.921875 20.484375 11.0625 
Q 25.484375 6.203125 34.421875 6.203125 
Q 39.59375 6.203125 44.453125 7.46875 
Q 49.3125 8.734375 54.109375 11.28125 
L 54.109375 2.78125 
Q 49.265625 0.734375 44.1875 -0.34375 
Q 39.109375 -1.421875 33.890625 -1.421875 
Q 20.796875 -1.421875 13.15625 6.1875 
Q 5.515625 13.8125 5.515625 26.8125 
Q 5.515625 40.234375 12.765625 48.109375 
Q 20.015625 56 32.328125 56 
Q 43.359375 56 49.78125 48.890625 
Q 56.203125 41.796875 56.203125 29.59375 
M 47.21875 32.234375 
Q 47.125 39.59375 43.09375 43.984375 
Q 39.0625 48.390625 32.421875 48.390625 
Q 24.90625 48.390625 20.390625 44.140625 
Q 15.875 39.890625 15.1875 32.171875 
z
" id="DejaVuSans-65"/>
      <path d="M 44.28125 53.078125 
L 44.28125 44.578125 
Q 40.484375 46.53125 36.375 47.5 
Q 32.28125 48.484375 27.875 48.484375 
Q 21.1875 48.484375 17.84375 46.4375 
Q 14.5 44.390625 14.5 40.28125 
Q 14.5 37.15625 16.890625 35.375 
Q 19.28125 33.59375 26.515625 31.984375 
L 29.59375 31.296875 
Q 39.15625 29.25 43.1875 25.515625 
Q 47.21875 21.78125 47.21875 15.09375 
Q 47.21875 7.46875 41.1875 3.015625 
Q 35.15625 -1.421875 24.609375 -1.421875 
Q 20.21875 -1.421875 15.453125 -0.5625 
Q 10.6875 0.296875 5.421875 2 
L 5.421875 11.28125 
Q 10.40625 8.6875 15.234375 7.390625 
Q 20.0625 6.109375 24.8125 6.109375 
Q 31.15625 6.109375 34.5625 8.28125 
Q 37.984375 10.453125 37.984375 14.40625 
Q 37.984375 18.0625 35.515625 20.015625 
Q 33.0625 21.96875 24.703125 23.78125 
L 21.578125 24.515625 
Q 13.234375 26.265625 9.515625 29.90625 
Q 5.8125 33.546875 5.8125 39.890625 
Q 5.8125 47.609375 11.28125 51.796875 
Q 16.75 56 26.8125 56 
Q 31.78125 56 36.171875 55.265625 
Q 40.578125 54.546875 44.28125 53.078125 
" id="DejaVuSans-73"/>
     </defs>
     <g transform="translate(206.9875 383.25125)scale(0.16 -0.16)">
      <use xlink:href="#DejaVuSans-54"/>
      <use x="61.037109" xlink:href="#DejaVuSans-69"/>
      <use x="88.820312" xlink:href="#DejaVuSans-6d"/>
      <use x="186.232422" xlink:href="#DejaVuSans-65"/>
      <use x="247.755859" xlink:href="#DejaVuSans-20"/>
      <use x="279.542969" xlink:href="#DejaVuSans-28"/>
      <use x="318.556641" xlink:href="#DejaVuSans-73"/>
      <use x="370.65625" xlink:href="#DejaVuSans-29"/>
     </g>
    </g>
   </g>
   <g id="matplotlib.axis_6">
    <g id="ytick_10">
     <g id="line2d_25">
      <g>
       <use style="stroke:#000000;stroke-width:0.8;" x="56.16" xlink:href="#m27a9bd8842" y="348.48"/>
      </g>
     </g>
     <g id="text_17">
      <!-- 0.0 -->
      <g transform="translate(30.07625 353.039062)scale(0.12 -0.12)">
       <use xlink:href="#DejaVuSans-30"/>
       <use x="63.623047" xlink:href="#DejaVuSans-2e"/>
       <use x="95.410156" xlink:href="#DejaVuSans-30"/>
      </g>
     </g>
    </g>
    <g id="ytick_11">
     <g id="line2d_26">
      <g>
       <use style="stroke:#000000;stroke-width:0.8;" x="56.16" xlink:href="#m27a9bd8842" y="295.2675"/>
      </g>
     </g>
     <g id="text_18">
      <!-- 0.3 -->
      <defs>
       <path d="M 40.578125 39.3125 
Q 47.65625 37.796875 51.625 33 
Q 55.609375 28.21875 55.609375 21.1875 
Q 55.609375 10.40625 48.1875 4.484375 
Q 40.765625 -1.421875 27.09375 -1.421875 
Q 22.515625 -1.421875 17.65625 -0.515625 
Q 12.796875 0.390625 7.625 2.203125 
L 7.625 11.71875 
Q 11.71875 9.328125 16.59375 8.109375 
Q 21.484375 6.890625 26.8125 6.890625 
Q 36.078125 6.890625 40.9375 10.546875 
Q 45.796875 14.203125 45.796875 21.1875 
Q 45.796875 27.640625 41.28125 31.265625 
Q 36.765625 34.90625 28.71875 34.90625 
L 20.21875 34.90625 
L 20.21875 43.015625 
L 29.109375 43.015625 
Q 36.375 43.015625 40.234375 45.921875 
Q 44.09375 48.828125 44.09375 54.296875 
Q 44.09375 59.90625 40.109375 62.90625 
Q 36.140625 65.921875 28.71875 65.921875 
Q 24.65625 65.921875 20.015625 65.03125 
Q 15.375 64.15625 9.8125 62.3125 
L 9.8125 71.09375 
Q 15.4375 72.65625 20.34375 73.4375 
Q 25.25 74.21875 29.59375 74.21875 
Q 40.828125 74.21875 47.359375 69.109375 
Q 53.90625 64.015625 53.90625 55.328125 
Q 53.90625 49.265625 50.4375 45.09375 
Q 46.96875 40.921875 40.578125 39.3125 
" id="DejaVuSans-33"/>
      </defs>
      <g transform="translate(30.07625 299.826562)scale(0.12 -0.12)">
       <use xlink:href="#DejaVuSans-30"/>
       <use x="63.623047" xlink:href="#DejaVuSans-2e"/>
       <use x="95.410156" xlink:href="#DejaVuSans-33"/>
      </g>
     </g>
    </g>
    <g id="ytick_12">
     <g id="line2d_27">
      <g>
       <use style="stroke:#000000;stroke-width:0.8;" x="56.16" xlink:href="#m27a9bd8842" y="242.055"/>
      </g>
     </g>
     <g id="text_19">
      <!-- 0.6 -->
      <g transform="translate(30.07625 246.614062)scale(0.12 -0.12)">
       <use xlink:href="#DejaVuSans-30"/>
       <use x="63.623047" xlink:href="#DejaVuSans-2e"/>
       <use x="95.410156" xlink:href="#DejaVuSans-36"/>
      </g>
     </g>
    </g>
    <g id="text_20">
     <!-- $r_A$ -->
     <defs>
      <path d="M 44.578125 46.390625 
Q 43.21875 47.125 41.453125 47.515625 
Q 39.703125 47.90625 37.703125 47.90625 
Q 30.515625 47.90625 25.140625 42.453125 
Q 19.78125 37.015625 18.015625 27.875 
L 12.5 0 
L 3.515625 0 
L 14.203125 54.6875 
L 23.1875 54.6875 
L 21.484375 46.1875 
Q 25.046875 50.921875 30 53.453125 
Q 34.96875 56 40.578125 56 
Q 42.046875 56 43.453125 55.828125 
Q 44.875 55.671875 46.296875 55.28125 
z
" id="DejaVuSans-Oblique-72"/>
     </defs>
     <g transform="translate(19.7845 302.6275)rotate(-90)scale(0.16 -0.16)">
      <use xlink:href="#DejaVuSans-Oblique-72"/>
      <use transform="translate(41.113281 -16.40625)scale(0.7)" xlink:href="#DejaVuSans-Oblique-41"/>
     </g>
    </g>
   </g>
   <g id="line2d_28"/>
   <g id="line2d_29">
    <path clip-path="url(#p6116808833)" d="M 63.09396 348.48 
L 63.09396 242.055 
" style="fill:none;stroke:#1f77b4;stroke-linecap:square;stroke-width:2;"/>
   </g>
   <g id="line2d_30">
    <path clip-path="url(#p6116808833)" d="M 132.59268 348.48 
L 132.59268 242.125159 
" style="fill:none;stroke:#1f77b4;stroke-linecap:square;stroke-width:2;"/>
   </g>
   <g id="line2d_31">
    <path clip-path="url(#p6116808833)" d="M 180.68976 348.48 
L 180.68976 242.627155 
" style="fill:none;stroke:#1f77b4;stroke-linecap:square;stroke-width:2;"/>
   </g>
   <g id="line2d_32">
    <path clip-path="url(#p6116808833)" d="M 225.97164 348.48 
L 225.97164 242.811383 
" style="fill:none;stroke:#1f77b4;stroke-linecap:square;stroke-width:2;"/>
   </g>
   <g id="line2d_33">
    <path clip-path="url(#p6116808833)" d="M 291.86568 348.48 
L 291.86568 242.155373 
" style="fill:none;stroke:#1f77b4;stroke-linecap:square;stroke-width:2;"/>
   </g>
   <g id="line2d_34">
    <path clip-path="url(#p6116808833)" d="M 375.15888 348.48 
L 375.15888 242.073156 
" style="fill:none;stroke:#1f77b4;stroke-linecap:square;stroke-width:2;"/>
   </g>
   <g id="line2d_35"/>
   <g id="patch_13">
    <path d="M 56.16 348.48 
L 56.16 242.055 
" style="fill:none;stroke:#000000;stroke-linecap:square;stroke-linejoin:miter;stroke-width:1.5;"/>
   </g>
   <g id="patch_14">
    <path d="M 423.36 348.48 
L 423.36 242.055 
" style="fill:none;"/>
   </g>
   <g id="patch_15">
    <path d="M 56.16 348.48 
L 423.36 348.48 
" style="fill:none;stroke:#000000;stroke-linecap:square;stroke-linejoin:miter;stroke-width:1.5;"/>
   </g>
   <g id="patch_16">
    <path d="M 56.16 242.055 
L 423.36 242.055 
" style="fill:none;"/>
   </g>
  </g>
 </g>
 <defs>
  <clipPath id="p0975bd16dc">
   <rect height="106.425" width="367.2" x="56.16" y="7.92"/>
  </clipPath>
  <clipPath id="pa33744c5d5">
   <rect height="106.425" width="367.2" x="56.16" y="124.9875"/>
  </clipPath>
  <clipPath id="p6116808833">
   <rect height="106.425" width="367.2" x="56.16" y="242.055"/>
  </clipPath>
 </defs>
</svg>
