<?xml version="1.0" encoding="utf-8" standalone="no"?>
<!DOCTYPE svg PUBLIC "-//W3C//DTD SVG 1.1//EN"
  "http://www.w3.org/Graphics/SVG/1.1/DTD/svg11.dtd">
<!-- Created with matplotlib (http://matplotlib.org/) -->
<svg height="288pt" version="1.1" viewBox="0 0 360 288" width="360pt" xmlns="http://www.w3.org/2000/svg" xmlns:xlink="http://www.w3.org/1999/xlink">
 <defs>
  <style type="text/css">
*{stroke-linecap:butt;stroke-linejoin:round;}
  </style>
 </defs>
 <g id="figure_1">
  <g id="patch_1">
   <path d="M 0 288 
L 360 288 
L 360 0 
L 0 0 
z
" style="fill:#ffffff;"/>
  </g>
  <g id="axes_1">
   <g id="patch_2">
    <path d="M 50.4 244.8 
L 342 244.8 
L 342 5.76 
L 50.4 5.76 
z
" style="fill:#ffffff;"/>
   </g>
   <g id="patch_3">
    <path clip-path="url(#p95d726f4bd)" d="M 50.4 223.069091 
L 50.4 223.069091 
L 53.345455 222.132478 
L 56.290909 221.159889 
L 59.236364 220.150323 
L 62.181818 219.102786 
L 65.127273 218.016294 
L 68.072727 216.889873 
L 71.018182 215.72257 
L 73.963636 214.513449 
L 76.909091 213.261602 
L 79.854545 211.96615 
L 82.8 210.62625 
L 85.745455 209.2411 
L 88.690909 207.809943 
L 91.636364 206.332076 
L 94.581818 204.80685 
L 97.527273 203.233683 
L 100.472727 201.61206 
L 103.418182 199.941545 
L 106.363636 198.221781 
L 109.309091 196.4525 
L 112.254545 194.633532 
L 115.2 192.764803 
L 118.145455 190.846348 
L 121.090909 188.878313 
L 124.036364 186.860964 
L 126.981818 184.794687 
L 129.927273 182.679997 
L 132.872727 180.51754 
L 135.818182 178.308097 
L 138.763636 176.052588 
L 141.709091 173.752072 
L 144.654545 171.407752 
L 147.6 169.02097 
L 150.545455 166.593215 
L 153.490909 164.126115 
L 156.436364 161.621438 
L 159.381818 159.081089 
L 162.327273 156.507106 
L 165.272727 153.901654 
L 168.218182 151.267022 
L 171.163636 148.605612 
L 174.109091 145.919936 
L 177.054545 143.212602 
L 180 140.486311 
L 182.945455 137.743839 
L 185.890909 134.988034 
L 188.836364 132.221799 
L 191.781818 129.448081 
L 194.727273 126.669861 
L 197.672727 123.890139 
L 200.618182 121.111919 
L 203.563636 118.338201 
L 206.509091 115.571966 
L 209.454545 112.816161 
L 212.4 110.073689 
L 215.345455 107.347398 
L 218.290909 104.640064 
L 221.236364 101.954388 
L 224.181818 99.292978 
L 227.127273 96.658346 
L 230.072727 94.052894 
L 233.018182 91.478911 
L 235.963636 88.938562 
L 238.909091 86.433885 
L 241.854545 83.966785 
L 244.8 81.53903 
L 247.745455 79.152248 
L 250.690909 76.807928 
L 253.636364 74.507412 
L 256.581818 72.251903 
L 259.527273 70.04246 
L 262.472727 67.880003 
L 265.418182 65.765313 
L 268.363636 63.699036 
L 271.309091 61.681687 
L 274.254545 59.713652 
L 277.2 57.795197 
L 280.145455 55.926468 
L 283.090909 54.1075 
L 286.036364 52.338219 
L 288.981818 50.618455 
L 291.927273 48.94794 
L 294.872727 47.326317 
L 297.818182 45.75315 
L 300.763636 44.227924 
L 303.709091 42.750057 
L 306.654545 41.3189 
L 309.6 39.93375 
L 312.545455 38.59385 
L 315.490909 37.298398 
L 318.436364 36.046551 
L 321.381818 34.83743 
L 324.327273 33.670127 
L 327.272727 32.543706 
L 330.218182 31.457214 
L 333.163636 30.409677 
L 336.109091 29.400111 
L 339.054545 28.427522 
L 342 27.490909 
L 342 27.490909 
L 342 5.76 
L 50.4 5.76 
z
" style="fill:#ff7f0e;"/>
   </g>
   <g id="patch_4">
    <path clip-path="url(#p95d726f4bd)" d="M 50.4 223.069091 
L 53.345455 222.132478 
L 56.290909 221.159889 
L 59.236364 220.150323 
L 62.181818 219.102786 
L 65.127273 218.016294 
L 68.072727 216.889873 
L 71.018182 215.72257 
L 73.963636 214.513449 
L 76.909091 213.261602 
L 79.854545 211.96615 
L 82.8 210.62625 
L 85.745455 209.2411 
L 88.690909 207.809943 
L 91.636364 206.332076 
L 94.581818 204.80685 
L 97.527273 203.233683 
L 100.472727 201.61206 
L 103.418182 199.941545 
L 106.363636 198.221781 
L 109.309091 196.4525 
L 112.254545 194.633532 
L 115.2 192.764803 
L 118.145455 190.846348 
L 121.090909 188.878313 
L 124.036364 186.860964 
L 126.981818 184.794687 
L 129.927273 182.679997 
L 132.872727 180.51754 
L 135.818182 178.308097 
L 138.763636 176.052588 
L 141.709091 173.752072 
L 144.654545 171.407752 
L 147.6 169.02097 
L 150.545455 166.593215 
L 153.490909 164.126115 
L 156.436364 161.621438 
L 159.381818 159.081089 
L 162.327273 156.507106 
L 165.272727 153.901654 
L 168.218182 151.267022 
L 171.163636 148.605612 
L 174.109091 145.919936 
L 177.054545 143.212602 
L 180 140.486311 
L 182.945455 137.743839 
L 185.890909 134.988034 
L 188.836364 132.221799 
L 191.781818 129.448081 
L 194.727273 126.669861 
L 197.672727 123.890139 
L 200.618182 121.111919 
L 203.563636 118.338201 
L 206.509091 115.571966 
L 209.454545 112.816161 
L 212.4 110.073689 
L 215.345455 107.347398 
L 218.290909 104.640064 
L 221.236364 101.954388 
L 224.181818 99.292978 
L 227.127273 96.658346 
L 230.072727 94.052894 
L 233.018182 91.478911 
L 235.963636 88.938562 
L 238.909091 86.433885 
L 241.854545 83.966785 
L 244.8 81.53903 
L 247.745455 79.152248 
L 250.690909 76.807928 
L 253.636364 74.507412 
L 256.581818 72.251903 
L 259.527273 70.04246 
L 262.472727 67.880003 
L 265.418182 65.765313 
L 268.363636 63.699036 
L 271.309091 61.681687 
L 274.254545 59.713652 
L 277.2 57.795197 
L 280.145455 55.926468 
L 283.090909 54.1075 
L 286.036364 52.338219 
L 288.981818 50.618455 
L 291.927273 48.94794 
L 294.872727 47.326317 
L 297.818182 45.75315 
L 300.763636 44.227924 
L 303.709091 42.750057 
L 306.654545 41.3189 
L 309.6 39.93375 
L 312.545455 38.59385 
L 315.490909 37.298398 
L 318.436364 36.046551 
L 321.381818 34.83743 
L 324.327273 33.670127 
L 327.272727 32.543706 
L 330.218182 31.457214 
L 333.163636 30.409677 
L 336.109091 29.400111 
L 339.054545 28.427522 
L 342 27.490909 
L 342 27.490909 
L 342 244.8 
L 50.4 244.8 
z
" style="fill:#1f77b4;"/>
   </g>
   <g id="matplotlib.axis_1">
    <g id="xtick_1">
     <g id="line2d_1">
      <defs>
       <path d="M 0 0 
L 0 3.5 
" id="m25aea3cb64" style="stroke:#000000;stroke-width:0.8;"/>
      </defs>
      <g>
       <use style="stroke:#000000;stroke-width:0.8;" x="50.4" xlink:href="#m25aea3cb64" y="244.8"/>
      </g>
     </g>
     <g id="text_1">
      <!-- 0.1 -->
      <defs>
       <path d="M 31.78125 66.40625 
Q 24.171875 66.40625 20.328125 58.90625 
Q 16.5 51.421875 16.5 36.375 
Q 16.5 21.390625 20.328125 13.890625 
Q 24.171875 6.390625 31.78125 6.390625 
Q 39.453125 6.390625 43.28125 13.890625 
Q 47.125 21.390625 47.125 36.375 
Q 47.125 51.421875 43.28125 58.90625 
Q 39.453125 66.40625 31.78125 66.40625 
M 31.78125 74.21875 
Q 44.046875 74.21875 50.515625 64.515625 
Q 56.984375 54.828125 56.984375 36.375 
Q 56.984375 17.96875 50.515625 8.265625 
Q 44.046875 -1.421875 31.78125 -1.421875 
Q 19.53125 -1.421875 13.0625 8.265625 
Q 6.59375 17.96875 6.59375 36.375 
Q 6.59375 54.828125 13.0625 64.515625 
Q 19.53125 74.21875 31.78125 74.21875 
" id="DejaVuSans-30"/>
       <path d="M 10.6875 12.40625 
L 21 12.40625 
L 21 0 
L 10.6875 0 
z
" id="DejaVuSans-2e"/>
       <path d="M 12.40625 8.296875 
L 28.515625 8.296875 
L 28.515625 63.921875 
L 10.984375 60.40625 
L 10.984375 69.390625 
L 28.421875 72.90625 
L 38.28125 72.90625 
L 38.28125 8.296875 
L 54.390625 8.296875 
L 54.390625 0 
L 12.40625 0 
z
" id="DejaVuSans-31"/>
      </defs>
      <g transform="translate(40.858125 260.918125)scale(0.12 -0.12)">
       <use xlink:href="#DejaVuSans-30"/>
       <use x="63.623047" xlink:href="#DejaVuSans-2e"/>
       <use x="95.410156" xlink:href="#DejaVuSans-31"/>
      </g>
     </g>
    </g>
    <g id="xtick_2">
     <g id="line2d_2">
      <g>
       <use style="stroke:#000000;stroke-width:0.8;" x="196.2" xlink:href="#m25aea3cb64" y="244.8"/>
      </g>
     </g>
     <g id="text_2">
      <!-- 1.0 -->
      <g transform="translate(186.658125 260.918125)scale(0.12 -0.12)">
       <use xlink:href="#DejaVuSans-31"/>
       <use x="63.623047" xlink:href="#DejaVuSans-2e"/>
       <use x="95.410156" xlink:href="#DejaVuSans-30"/>
      </g>
     </g>
    </g>
    <g id="xtick_3">
     <g id="line2d_3">
      <g>
       <use style="stroke:#000000;stroke-width:0.8;" x="342" xlink:href="#m25aea3cb64" y="244.8"/>
      </g>
     </g>
     <g id="text_3">
      <!-- 10.0 -->
      <g transform="translate(328.640625 260.918125)scale(0.12 -0.12)">
       <use xlink:href="#DejaVuSans-31"/>
       <use x="63.623047" xlink:href="#DejaVuSans-30"/>
       <use x="127.246094" xlink:href="#DejaVuSans-2e"/>
       <use x="159.033203" xlink:href="#DejaVuSans-30"/>
      </g>
     </g>
    </g>
    <g id="xtick_4">
     <g id="line2d_4">
      <defs>
       <path d="M 0 0 
L 0 2 
" id="m336c1963f2" style="stroke:#000000;stroke-width:0.6;"/>
      </defs>
      <g>
       <use style="stroke:#000000;stroke-width:0.6;" x="94.290173" xlink:href="#m336c1963f2" y="244.8"/>
      </g>
     </g>
    </g>
    <g id="xtick_5">
     <g id="line2d_5">
      <g>
       <use style="stroke:#000000;stroke-width:0.6;" x="119.964279" xlink:href="#m336c1963f2" y="244.8"/>
      </g>
     </g>
    </g>
    <g id="xtick_6">
     <g id="line2d_6">
      <g>
       <use style="stroke:#000000;stroke-width:0.6;" x="138.180347" xlink:href="#m336c1963f2" y="244.8"/>
      </g>
     </g>
    </g>
    <g id="xtick_7">
     <g id="line2d_7">
      <g>
       <use style="stroke:#000000;stroke-width:0.6;" x="152.309827" xlink:href="#m336c1963f2" y="244.8"/>
      </g>
     </g>
    </g>
    <g id="xtick_8">
     <g id="line2d_8">
      <g>
       <use style="stroke:#000000;stroke-width:0.6;" x="163.854452" xlink:href="#m336c1963f2" y="244.8"/>
      </g>
     </g>
    </g>
    <g id="xtick_9">
     <g id="line2d_9">
      <g>
       <use style="stroke:#000000;stroke-width:0.6;" x="173.615294" xlink:href="#m336c1963f2" y="244.8"/>
      </g>
     </g>
    </g>
    <g id="xtick_10">
     <g id="line2d_10">
      <g>
       <use style="stroke:#000000;stroke-width:0.6;" x="182.07052" xlink:href="#m336c1963f2" y="244.8"/>
      </g>
     </g>
    </g>
    <g id="xtick_11">
     <g id="line2d_11">
      <g>
       <use style="stroke:#000000;stroke-width:0.6;" x="189.528558" xlink:href="#m336c1963f2" y="244.8"/>
      </g>
     </g>
    </g>
    <g id="xtick_12">
     <g id="line2d_12">
      <g>
       <use style="stroke:#000000;stroke-width:0.6;" x="240.090173" xlink:href="#m336c1963f2" y="244.8"/>
      </g>
     </g>
    </g>
    <g id="xtick_13">
     <g id="line2d_13">
      <g>
       <use style="stroke:#000000;stroke-width:0.6;" x="265.764279" xlink:href="#m336c1963f2" y="244.8"/>
      </g>
     </g>
    </g>
    <g id="xtick_14">
     <g id="line2d_14">
      <g>
       <use style="stroke:#000000;stroke-width:0.6;" x="283.980347" xlink:href="#m336c1963f2" y="244.8"/>
      </g>
     </g>
    </g>
    <g id="xtick_15">
     <g id="line2d_15">
      <g>
       <use style="stroke:#000000;stroke-width:0.6;" x="298.109827" xlink:href="#m336c1963f2" y="244.8"/>
      </g>
     </g>
    </g>
    <g id="xtick_16">
     <g id="line2d_16">
      <g>
       <use style="stroke:#000000;stroke-width:0.6;" x="309.654452" xlink:href="#m336c1963f2" y="244.8"/>
      </g>
     </g>
    </g>
    <g id="xtick_17">
     <g id="line2d_17">
      <g>
       <use style="stroke:#000000;stroke-width:0.6;" x="319.415294" xlink:href="#m336c1963f2" y="244.8"/>
      </g>
     </g>
    </g>
    <g id="xtick_18">
     <g id="line2d_18">
      <g>
       <use style="stroke:#000000;stroke-width:0.6;" x="327.87052" xlink:href="#m336c1963f2" y="244.8"/>
      </g>
     </g>
    </g>
    <g id="xtick_19">
     <g id="line2d_19">
      <g>
       <use style="stroke:#000000;stroke-width:0.6;" x="335.328558" xlink:href="#m336c1963f2" y="244.8"/>
      </g>
     </g>
    </g>
    <g id="text_4">
     <!-- $\Omega_d/\Omega_f$ ratio -->
     <defs>
      <path d="M 72.609375 8.6875 
L 72.609375 0 
L 43.3125 0 
L 43.3125 8.6875 
Q 51.953125 13.421875 56.78125 21.53125 
Q 61.625 29.640625 61.625 39.5 
Q 61.625 51.21875 55.171875 58.296875 
Q 48.734375 65.375 38.1875 65.375 
Q 27.640625 65.375 21.171875 58.265625 
Q 14.703125 51.171875 14.703125 39.5 
Q 14.703125 29.640625 19.53125 21.53125 
Q 24.421875 13.421875 33.109375 8.6875 
L 33.109375 0 
L 3.8125 0 
L 3.8125 8.6875 
L 19.390625 8.6875 
Q 11.671875 15.484375 8.109375 22.75 
Q 4.59375 30.03125 4.59375 39.015625 
Q 4.59375 54.546875 13.96875 64.15625 
Q 23.296875 73.78125 38.1875 73.78125 
Q 52.984375 73.78125 62.40625 64.15625 
Q 71.78125 54.59375 71.78125 39.5 
Q 71.78125 30.03125 68.3125 22.796875 
Q 64.84375 15.578125 56.984375 8.6875 
z
" id="DejaVuSans-3a9"/>
      <path d="M 41.796875 8.203125 
Q 38.1875 3.46875 33.25 1.015625 
Q 28.328125 -1.421875 22.3125 -1.421875 
Q 14.109375 -1.421875 9.34375 4.171875 
Q 4.59375 9.765625 4.59375 19.484375 
Q 4.59375 27.59375 7.46875 34.9375 
Q 10.359375 42.28125 15.828125 48.09375 
Q 19.4375 51.953125 23.96875 53.96875 
Q 28.515625 56 33.5 56 
Q 38.765625 56 42.796875 53.453125 
Q 46.828125 50.921875 49.03125 46.1875 
L 54.890625 75.984375 
L 63.921875 75.984375 
L 49.125 0 
L 40.09375 0 
z
M 13.921875 21.09375 
Q 13.921875 14.015625 17.109375 10.0625 
Q 20.3125 6.109375 25.984375 6.109375 
Q 30.171875 6.109375 33.765625 8.125 
Q 37.359375 10.15625 40.09375 14.109375 
Q 42.96875 18.21875 44.625 23.578125 
Q 46.296875 28.953125 46.296875 34.1875 
Q 46.296875 40.96875 43.09375 44.765625 
Q 39.890625 48.578125 34.28125 48.578125 
Q 30.03125 48.578125 26.359375 46.578125 
Q 22.703125 44.578125 20.125 40.828125 
Q 17.28125 36.765625 15.59375 31.390625 
Q 13.921875 26.03125 13.921875 21.09375 
" id="DejaVuSans-Oblique-64"/>
      <path d="M 25.390625 72.90625 
L 33.6875 72.90625 
L 8.296875 -9.28125 
L 0 -9.28125 
z
" id="DejaVuSans-2f"/>
      <path d="M 47.796875 75.984375 
L 46.390625 68.5 
L 37.796875 68.5 
Q 32.90625 68.5 30.6875 66.578125 
Q 28.46875 64.65625 27.390625 59.515625 
L 26.421875 54.6875 
L 41.21875 54.6875 
L 39.890625 47.703125 
L 25.09375 47.703125 
L 15.828125 0 
L 6.78125 0 
L 16.109375 47.703125 
L 7.515625 47.703125 
L 8.796875 54.6875 
L 17.390625 54.6875 
L 18.109375 58.5 
Q 19.96875 68.171875 24.625 72.078125 
Q 29.296875 75.984375 39.3125 75.984375 
z
" id="DejaVuSans-Oblique-66"/>
      <path id="DejaVuSans-20"/>
      <path d="M 41.109375 46.296875 
Q 39.59375 47.171875 37.8125 47.578125 
Q 36.03125 48 33.890625 48 
Q 26.265625 48 22.1875 43.046875 
Q 18.109375 38.09375 18.109375 28.8125 
L 18.109375 0 
L 9.078125 0 
L 9.078125 54.6875 
L 18.109375 54.6875 
L 18.109375 46.1875 
Q 20.953125 51.171875 25.484375 53.578125 
Q 30.03125 56 36.53125 56 
Q 37.453125 56 38.578125 55.875 
Q 39.703125 55.765625 41.0625 55.515625 
z
" id="DejaVuSans-72"/>
      <path d="M 34.28125 27.484375 
Q 23.390625 27.484375 19.1875 25 
Q 14.984375 22.515625 14.984375 16.5 
Q 14.984375 11.71875 18.140625 8.90625 
Q 21.296875 6.109375 26.703125 6.109375 
Q 34.1875 6.109375 38.703125 11.40625 
Q 43.21875 16.703125 43.21875 25.484375 
L 43.21875 27.484375 
z
M 52.203125 31.203125 
L 52.203125 0 
L 43.21875 0 
L 43.21875 8.296875 
Q 40.140625 3.328125 35.546875 0.953125 
Q 30.953125 -1.421875 24.3125 -1.421875 
Q 15.921875 -1.421875 10.953125 3.296875 
Q 6 8.015625 6 15.921875 
Q 6 25.140625 12.171875 29.828125 
Q 18.359375 34.515625 30.609375 34.515625 
L 43.21875 34.515625 
L 43.21875 35.40625 
Q 43.21875 41.609375 39.140625 45 
Q 35.0625 48.390625 27.6875 48.390625 
Q 23 48.390625 18.546875 47.265625 
Q 14.109375 46.140625 10.015625 43.890625 
L 10.015625 52.203125 
Q 14.9375 54.109375 19.578125 55.046875 
Q 24.21875 56 28.609375 56 
Q 40.484375 56 46.34375 49.84375 
Q 52.203125 43.703125 52.203125 31.203125 
" id="DejaVuSans-61"/>
      <path d="M 18.3125 70.21875 
L 18.3125 54.6875 
L 36.8125 54.6875 
L 36.8125 47.703125 
L 18.3125 47.703125 
L 18.3125 18.015625 
Q 18.3125 11.328125 20.140625 9.421875 
Q 21.96875 7.515625 27.59375 7.515625 
L 36.8125 7.515625 
L 36.8125 0 
L 27.59375 0 
Q 17.1875 0 13.234375 3.875 
Q 9.28125 7.765625 9.28125 18.015625 
L 9.28125 47.703125 
L 2.6875 47.703125 
L 2.6875 54.6875 
L 9.28125 54.6875 
L 9.28125 70.21875 
z
" id="DejaVuSans-74"/>
      <path d="M 9.421875 54.6875 
L 18.40625 54.6875 
L 18.40625 0 
L 9.421875 0 
z
M 9.421875 75.984375 
L 18.40625 75.984375 
L 18.40625 64.59375 
L 9.421875 64.59375 
z
" id="DejaVuSans-69"/>
      <path d="M 30.609375 48.390625 
Q 23.390625 48.390625 19.1875 42.75 
Q 14.984375 37.109375 14.984375 27.296875 
Q 14.984375 17.484375 19.15625 11.84375 
Q 23.34375 6.203125 30.609375 6.203125 
Q 37.796875 6.203125 41.984375 11.859375 
Q 46.1875 17.53125 46.1875 27.296875 
Q 46.1875 37.015625 41.984375 42.703125 
Q 37.796875 48.390625 30.609375 48.390625 
M 30.609375 56 
Q 42.328125 56 49.015625 48.375 
Q 55.71875 40.765625 55.71875 27.296875 
Q 55.71875 13.875 49.015625 6.21875 
Q 42.328125 -1.421875 30.609375 -1.421875 
Q 18.84375 -1.421875 12.171875 6.21875 
Q 5.515625 13.875 5.515625 27.296875 
Q 5.515625 40.765625 12.171875 48.375 
Q 18.84375 56 30.609375 56 
" id="DejaVuSans-6f"/>
     </defs>
     <g transform="translate(154.12 279.57125)scale(0.16 -0.16)">
      <use transform="translate(0 0.015625)" xlink:href="#DejaVuSans-3a9"/>
      <use transform="translate(77.373047 -16.390625)scale(0.7)" xlink:href="#DejaVuSans-Oblique-64"/>
      <use transform="translate(124.541016 0.015625)" xlink:href="#DejaVuSans-2f"/>
      <use transform="translate(158.232422 0.015625)" xlink:href="#DejaVuSans-3a9"/>
      <use transform="translate(235.605469 -16.390625)scale(0.7)" xlink:href="#DejaVuSans-Oblique-66"/>
      <use transform="translate(262.983398 0.015625)" xlink:href="#DejaVuSans-20"/>
      <use transform="translate(294.770508 0.015625)" xlink:href="#DejaVuSans-72"/>
      <use transform="translate(335.883789 0.015625)" xlink:href="#DejaVuSans-61"/>
      <use transform="translate(397.163086 0.015625)" xlink:href="#DejaVuSans-74"/>
      <use transform="translate(436.37207 0.015625)" xlink:href="#DejaVuSans-69"/>
      <use transform="translate(464.155273 0.015625)" xlink:href="#DejaVuSans-6f"/>
     </g>
    </g>
   </g>
   <g id="matplotlib.axis_2">
    <g id="ytick_1">
     <g id="line2d_20">
      <defs>
       <path d="M 0 0 
L -3.5 0 
" id="m0a4b124e80" style="stroke:#000000;stroke-width:0.8;"/>
      </defs>
      <g>
       <use style="stroke:#000000;stroke-width:0.8;" x="50.4" xlink:href="#m0a4b124e80" y="244.8"/>
      </g>
     </g>
     <g id="text_5">
      <!-- 0.0 -->
      <g transform="translate(24.31625 249.359062)scale(0.12 -0.12)">
       <use xlink:href="#DejaVuSans-30"/>
       <use x="63.623047" xlink:href="#DejaVuSans-2e"/>
       <use x="95.410156" xlink:href="#DejaVuSans-30"/>
      </g>
     </g>
    </g>
    <g id="ytick_2">
     <g id="line2d_21">
      <g>
       <use style="stroke:#000000;stroke-width:0.8;" x="50.4" xlink:href="#m0a4b124e80" y="125.28"/>
      </g>
     </g>
     <g id="text_6">
      <!-- 0.5 -->
      <defs>
       <path d="M 10.796875 72.90625 
L 49.515625 72.90625 
L 49.515625 64.59375 
L 19.828125 64.59375 
L 19.828125 46.734375 
Q 21.96875 47.46875 24.109375 47.828125 
Q 26.265625 48.1875 28.421875 48.1875 
Q 40.625 48.1875 47.75 41.5 
Q 54.890625 34.8125 54.890625 23.390625 
Q 54.890625 11.625 47.5625 5.09375 
Q 40.234375 -1.421875 26.90625 -1.421875 
Q 22.3125 -1.421875 17.546875 -0.640625 
Q 12.796875 0.140625 7.71875 1.703125 
L 7.71875 11.625 
Q 12.109375 9.234375 16.796875 8.0625 
Q 21.484375 6.890625 26.703125 6.890625 
Q 35.15625 6.890625 40.078125 11.328125 
Q 45.015625 15.765625 45.015625 23.390625 
Q 45.015625 31 40.078125 35.4375 
Q 35.15625 39.890625 26.703125 39.890625 
Q 22.75 39.890625 18.8125 39.015625 
Q 14.890625 38.140625 10.796875 36.28125 
z
" id="DejaVuSans-35"/>
      </defs>
      <g transform="translate(24.31625 129.839062)scale(0.12 -0.12)">
       <use xlink:href="#DejaVuSans-30"/>
       <use x="63.623047" xlink:href="#DejaVuSans-2e"/>
       <use x="95.410156" xlink:href="#DejaVuSans-35"/>
      </g>
     </g>
    </g>
    <g id="ytick_3">
     <g id="line2d_22">
      <g>
       <use style="stroke:#000000;stroke-width:0.8;" x="50.4" xlink:href="#m0a4b124e80" y="5.76"/>
      </g>
     </g>
     <g id="text_7">
      <!-- 1.0 -->
      <g transform="translate(24.31625 10.319062)scale(0.12 -0.12)">
       <use xlink:href="#DejaVuSans-31"/>
       <use x="63.623047" xlink:href="#DejaVuSans-2e"/>
       <use x="95.410156" xlink:href="#DejaVuSans-30"/>
      </g>
     </g>
    </g>
    <g id="text_8">
     <!-- Synaptic BRP ($U_0$) -->
     <defs>
      <path d="M 53.515625 70.515625 
L 53.515625 60.890625 
Q 47.90625 63.578125 42.921875 64.890625 
Q 37.9375 66.21875 33.296875 66.21875 
Q 25.25 66.21875 20.875 63.09375 
Q 16.5 59.96875 16.5 54.203125 
Q 16.5 49.359375 19.40625 46.890625 
Q 22.3125 44.4375 30.421875 42.921875 
L 36.375 41.703125 
Q 47.40625 39.59375 52.65625 34.296875 
Q 57.90625 29 57.90625 20.125 
Q 57.90625 9.515625 50.796875 4.046875 
Q 43.703125 -1.421875 29.984375 -1.421875 
Q 24.8125 -1.421875 18.96875 -0.25 
Q 13.140625 0.921875 6.890625 3.21875 
L 6.890625 13.375 
Q 12.890625 10.015625 18.65625 8.296875 
Q 24.421875 6.59375 29.984375 6.59375 
Q 38.421875 6.59375 43.015625 9.90625 
Q 47.609375 13.234375 47.609375 19.390625 
Q 47.609375 24.75 44.3125 27.78125 
Q 41.015625 30.8125 33.5 32.328125 
L 27.484375 33.5 
Q 16.453125 35.6875 11.515625 40.375 
Q 6.59375 45.0625 6.59375 53.421875 
Q 6.59375 63.09375 13.40625 68.65625 
Q 20.21875 74.21875 32.171875 74.21875 
Q 37.3125 74.21875 42.625 73.28125 
Q 47.953125 72.359375 53.515625 70.515625 
" id="DejaVuSans-53"/>
      <path d="M 32.171875 -5.078125 
Q 28.375 -14.84375 24.75 -17.8125 
Q 21.140625 -20.796875 15.09375 -20.796875 
L 7.90625 -20.796875 
L 7.90625 -13.28125 
L 13.1875 -13.28125 
Q 16.890625 -13.28125 18.9375 -11.515625 
Q 21 -9.765625 23.484375 -3.21875 
L 25.09375 0.875 
L 2.984375 54.6875 
L 12.5 54.6875 
L 29.59375 11.921875 
L 46.6875 54.6875 
L 56.203125 54.6875 
z
" id="DejaVuSans-79"/>
      <path d="M 54.890625 33.015625 
L 54.890625 0 
L 45.90625 0 
L 45.90625 32.71875 
Q 45.90625 40.484375 42.875 44.328125 
Q 39.84375 48.1875 33.796875 48.1875 
Q 26.515625 48.1875 22.3125 43.546875 
Q 18.109375 38.921875 18.109375 30.90625 
L 18.109375 0 
L 9.078125 0 
L 9.078125 54.6875 
L 18.109375 54.6875 
L 18.109375 46.1875 
Q 21.34375 51.125 25.703125 53.5625 
Q 30.078125 56 35.796875 56 
Q 45.21875 56 50.046875 50.171875 
Q 54.890625 44.34375 54.890625 33.015625 
" id="DejaVuSans-6e"/>
      <path d="M 18.109375 8.203125 
L 18.109375 -20.796875 
L 9.078125 -20.796875 
L 9.078125 54.6875 
L 18.109375 54.6875 
L 18.109375 46.390625 
Q 20.953125 51.265625 25.265625 53.625 
Q 29.59375 56 35.59375 56 
Q 45.5625 56 51.78125 48.09375 
Q 58.015625 40.1875 58.015625 27.296875 
Q 58.015625 14.40625 51.78125 6.484375 
Q 45.5625 -1.421875 35.59375 -1.421875 
Q 29.59375 -1.421875 25.265625 0.953125 
Q 20.953125 3.328125 18.109375 8.203125 
M 48.6875 27.296875 
Q 48.6875 37.203125 44.609375 42.84375 
Q 40.53125 48.484375 33.40625 48.484375 
Q 26.265625 48.484375 22.1875 42.84375 
Q 18.109375 37.203125 18.109375 27.296875 
Q 18.109375 17.390625 22.1875 11.75 
Q 26.265625 6.109375 33.40625 6.109375 
Q 40.53125 6.109375 44.609375 11.75 
Q 48.6875 17.390625 48.6875 27.296875 
" id="DejaVuSans-70"/>
      <path d="M 48.78125 52.59375 
L 48.78125 44.1875 
Q 44.96875 46.296875 41.140625 47.34375 
Q 37.3125 48.390625 33.40625 48.390625 
Q 24.65625 48.390625 19.8125 42.84375 
Q 14.984375 37.3125 14.984375 27.296875 
Q 14.984375 17.28125 19.8125 11.734375 
Q 24.65625 6.203125 33.40625 6.203125 
Q 37.3125 6.203125 41.140625 7.25 
Q 44.96875 8.296875 48.78125 10.40625 
L 48.78125 2.09375 
Q 45.015625 0.34375 40.984375 -0.53125 
Q 36.96875 -1.421875 32.421875 -1.421875 
Q 20.0625 -1.421875 12.78125 6.34375 
Q 5.515625 14.109375 5.515625 27.296875 
Q 5.515625 40.671875 12.859375 48.328125 
Q 20.21875 56 33.015625 56 
Q 37.15625 56 41.109375 55.140625 
Q 45.0625 54.296875 48.78125 52.59375 
" id="DejaVuSans-63"/>
      <path d="M 19.671875 34.8125 
L 19.671875 8.109375 
L 35.5 8.109375 
Q 43.453125 8.109375 47.28125 11.40625 
Q 51.125 14.703125 51.125 21.484375 
Q 51.125 28.328125 47.28125 31.5625 
Q 43.453125 34.8125 35.5 34.8125 
z
M 19.671875 64.796875 
L 19.671875 42.828125 
L 34.28125 42.828125 
Q 41.5 42.828125 45.03125 45.53125 
Q 48.578125 48.25 48.578125 53.8125 
Q 48.578125 59.328125 45.03125 62.0625 
Q 41.5 64.796875 34.28125 64.796875 
z
M 9.8125 72.90625 
L 35.015625 72.90625 
Q 46.296875 72.90625 52.390625 68.21875 
Q 58.5 63.53125 58.5 54.890625 
Q 58.5 48.1875 55.375 44.234375 
Q 52.25 40.28125 46.1875 39.3125 
Q 53.46875 37.75 57.5 32.78125 
Q 61.53125 27.828125 61.53125 20.40625 
Q 61.53125 10.640625 54.890625 5.3125 
Q 48.25 0 35.984375 0 
L 9.8125 0 
z
" id="DejaVuSans-42"/>
      <path d="M 44.390625 34.1875 
Q 47.5625 33.109375 50.5625 29.59375 
Q 53.5625 26.078125 56.59375 19.921875 
L 66.609375 0 
L 56 0 
L 46.6875 18.703125 
Q 43.0625 26.03125 39.671875 28.421875 
Q 36.28125 30.8125 30.421875 30.8125 
L 19.671875 30.8125 
L 19.671875 0 
L 9.8125 0 
L 9.8125 72.90625 
L 32.078125 72.90625 
Q 44.578125 72.90625 50.734375 67.671875 
Q 56.890625 62.453125 56.890625 51.90625 
Q 56.890625 45.015625 53.6875 40.46875 
Q 50.484375 35.9375 44.390625 34.1875 
M 19.671875 64.796875 
L 19.671875 38.921875 
L 32.078125 38.921875 
Q 39.203125 38.921875 42.84375 42.21875 
Q 46.484375 45.515625 46.484375 51.90625 
Q 46.484375 58.296875 42.84375 61.546875 
Q 39.203125 64.796875 32.078125 64.796875 
z
" id="DejaVuSans-52"/>
      <path d="M 19.671875 64.796875 
L 19.671875 37.40625 
L 32.078125 37.40625 
Q 38.96875 37.40625 42.71875 40.96875 
Q 46.484375 44.53125 46.484375 51.125 
Q 46.484375 57.671875 42.71875 61.234375 
Q 38.96875 64.796875 32.078125 64.796875 
z
M 9.8125 72.90625 
L 32.078125 72.90625 
Q 44.34375 72.90625 50.609375 67.359375 
Q 56.890625 61.8125 56.890625 51.125 
Q 56.890625 40.328125 50.609375 34.8125 
Q 44.34375 29.296875 32.078125 29.296875 
L 19.671875 29.296875 
L 19.671875 0 
L 9.8125 0 
z
" id="DejaVuSans-50"/>
      <path d="M 31 75.875 
Q 24.46875 64.65625 21.28125 53.65625 
Q 18.109375 42.671875 18.109375 31.390625 
Q 18.109375 20.125 21.3125 9.0625 
Q 24.515625 -2 31 -13.1875 
L 23.1875 -13.1875 
Q 15.875 -1.703125 12.234375 9.375 
Q 8.59375 20.453125 8.59375 31.390625 
Q 8.59375 42.28125 12.203125 53.3125 
Q 15.828125 64.359375 23.1875 75.875 
z
" id="DejaVuSans-28"/>
      <path d="M 15.484375 72.90625 
L 25.390625 72.90625 
L 16.796875 28.609375 
Q 16.265625 25.640625 16.046875 23.703125 
Q 15.828125 21.78125 15.828125 20.3125 
Q 15.828125 13.578125 19.578125 10.078125 
Q 23.34375 6.59375 30.609375 6.59375 
Q 40.046875 6.59375 45.28125 11.765625 
Q 50.53125 16.9375 52.78125 28.609375 
L 61.375 72.90625 
L 71.296875 72.90625 
L 62.5 27.390625 
Q 59.625 12.640625 51.5625 5.609375 
Q 43.5 -1.421875 29.5 -1.421875 
Q 18.5625 -1.421875 12.1875 4.078125 
Q 5.8125 9.578125 5.8125 19 
Q 5.8125 20.703125 6.046875 22.828125 
Q 6.296875 24.953125 6.78125 27.390625 
z
" id="DejaVuSans-Oblique-55"/>
      <path d="M 8.015625 75.875 
L 15.828125 75.875 
Q 23.140625 64.359375 26.78125 53.3125 
Q 30.421875 42.28125 30.421875 31.390625 
Q 30.421875 20.453125 26.78125 9.375 
Q 23.140625 -1.703125 15.828125 -13.1875 
L 8.015625 -13.1875 
Q 14.5 -2 17.703125 9.0625 
Q 20.90625 20.125 20.90625 31.390625 
Q 20.90625 42.671875 17.703125 53.65625 
Q 14.5 64.65625 8.015625 75.875 
" id="DejaVuSans-29"/>
     </defs>
     <g transform="translate(16.95625 196.8)rotate(-90)scale(0.16 -0.16)">
      <use transform="translate(0 0.015625)" xlink:href="#DejaVuSans-53"/>
      <use transform="translate(63.476562 0.015625)" xlink:href="#DejaVuSans-79"/>
      <use transform="translate(122.65625 0.015625)" xlink:href="#DejaVuSans-6e"/>
      <use transform="translate(186.035156 0.015625)" xlink:href="#DejaVuSans-61"/>
      <use transform="translate(247.314453 0.015625)" xlink:href="#DejaVuSans-70"/>
      <use transform="translate(310.791016 0.015625)" xlink:href="#DejaVuSans-74"/>
      <use transform="translate(350 0.015625)" xlink:href="#DejaVuSans-69"/>
      <use transform="translate(377.783203 0.015625)" xlink:href="#DejaVuSans-63"/>
      <use transform="translate(432.763672 0.015625)" xlink:href="#DejaVuSans-20"/>
      <use transform="translate(464.550781 0.015625)" xlink:href="#DejaVuSans-42"/>
      <use transform="translate(533.154297 0.015625)" xlink:href="#DejaVuSans-52"/>
      <use transform="translate(602.636719 0.015625)" xlink:href="#DejaVuSans-50"/>
      <use transform="translate(662.939453 0.015625)" xlink:href="#DejaVuSans-20"/>
      <use transform="translate(694.726562 0.015625)" xlink:href="#DejaVuSans-28"/>
      <use transform="translate(733.740234 0.015625)" xlink:href="#DejaVuSans-Oblique-55"/>
      <use transform="translate(806.933594 -16.390625)scale(0.7)" xlink:href="#DejaVuSans-30"/>
      <use transform="translate(854.204102 0.015625)" xlink:href="#DejaVuSans-29"/>
     </g>
    </g>
   </g>
   <g id="line2d_23">
    <path clip-path="url(#p95d726f4bd)" d="M 50.4 223.069091 
L 53.345455 222.132478 
L 56.290909 221.159889 
L 59.236364 220.150323 
L 62.181818 219.102786 
L 65.127273 218.016294 
L 68.072727 216.889873 
L 71.018182 215.72257 
L 73.963636 214.513449 
L 76.909091 213.261602 
L 79.854545 211.96615 
L 82.8 210.62625 
L 85.745455 209.2411 
L 88.690909 207.809943 
L 91.636364 206.332076 
L 94.581818 204.80685 
L 97.527273 203.233683 
L 100.472727 201.61206 
L 103.418182 199.941545 
L 106.363636 198.221781 
L 109.309091 196.4525 
L 112.254545 194.633532 
L 115.2 192.764803 
L 118.145455 190.846348 
L 121.090909 188.878313 
L 124.036364 186.860964 
L 126.981818 184.794687 
L 129.927273 182.679997 
L 132.872727 180.51754 
L 135.818182 178.308097 
L 138.763636 176.052588 
L 141.709091 173.752072 
L 144.654545 171.407752 
L 147.6 169.02097 
L 150.545455 166.593215 
L 153.490909 164.126115 
L 156.436364 161.621438 
L 159.381818 159.081089 
L 162.327273 156.507106 
L 165.272727 153.901654 
L 168.218182 151.267022 
L 171.163636 148.605612 
L 174.109091 145.919936 
L 177.054545 143.212602 
L 180 140.486311 
L 182.945455 137.743839 
L 185.890909 134.988034 
L 188.836364 132.221799 
L 191.781818 129.448081 
L 194.727273 126.669861 
L 197.672727 123.890139 
L 200.618182 121.111919 
L 203.563636 118.338201 
L 206.509091 115.571966 
L 209.454545 112.816161 
L 212.4 110.073689 
L 215.345455 107.347398 
L 218.290909 104.640064 
L 221.236364 101.954388 
L 224.181818 99.292978 
L 227.127273 96.658346 
L 230.072727 94.052894 
L 233.018182 91.478911 
L 235.963636 88.938562 
L 238.909091 86.433885 
L 241.854545 83.966785 
L 244.8 81.53903 
L 247.745455 79.152248 
L 250.690909 76.807928 
L 253.636364 74.507412 
L 256.581818 72.251903 
L 259.527273 70.04246 
L 262.472727 67.880003 
L 265.418182 65.765313 
L 268.363636 63.699036 
L 271.309091 61.681687 
L 274.254545 59.713652 
L 277.2 57.795197 
L 280.145455 55.926468 
L 283.090909 54.1075 
L 286.036364 52.338219 
L 288.981818 50.618455 
L 291.927273 48.94794 
L 294.872727 47.326317 
L 297.818182 45.75315 
L 300.763636 44.227924 
L 303.709091 42.750057 
L 306.654545 41.3189 
L 309.6 39.93375 
L 312.545455 38.59385 
L 315.490909 37.298398 
L 318.436364 36.046551 
L 321.381818 34.83743 
L 324.327273 33.670127 
L 327.272727 32.543706 
L 330.218182 31.457214 
L 333.163636 30.409677 
L 336.109091 29.400111 
L 339.054545 28.427522 
L 342 27.490909 
" style="fill:none;stroke:#ffffff;stroke-linecap:square;stroke-width:2;"/>
   </g>
   <g id="patch_5">
    <path d="M 50.4 244.8 
L 50.4 5.76 
" style="fill:none;stroke:#000000;stroke-linecap:square;stroke-linejoin:miter;stroke-width:1.5;"/>
   </g>
   <g id="patch_6">
    <path d="M 342 244.8 
L 342 5.76 
" style="fill:none;"/>
   </g>
   <g id="patch_7">
    <path d="M 50.4 244.8 
L 342 244.8 
" style="fill:none;stroke:#000000;stroke-linecap:square;stroke-linejoin:miter;stroke-width:1.5;"/>
   </g>
   <g id="patch_8">
    <path d="M 50.4 5.76 
L 342 5.76 
" style="fill:none;"/>
   </g>
  </g>
 </g>
 <defs>
  <clipPath id="p95d726f4bd">
   <rect height="239.04" width="291.6" x="50.4" y="5.76"/>
  </clipPath>
 </defs>
</svg>
